<?xml version="1.0" standalone="no"?>
<!DOCTYPE svg PUBLIC "-//W3C//DTD SVG 20010904//EN"
 "http://www.w3.org/TR/2001/REC-SVG-20010904/DTD/svg10.dtd">
<svg version="1.0" xmlns="http://www.w3.org/2000/svg"
 width="1024.000000pt" height="1024.000000pt" viewBox="0 0 1024.000000 1024.000000"
 preserveAspectRatio="xMidYMid meet">
<metadata>
Created by potrace 1.14, written by Peter Selinger 2001-2017
</metadata>
<g transform="translate(0.000000,1024.000000) scale(0.100000,-0.100000)"
fill="#000000" stroke="none">
<path d="M4838 10075 c-2 -2 -48 -6 -103 -9 -55 -4 -113 -8 -130 -10 -16 -2
-59 -7 -95 -11 -101 -10 -166 -19 -290 -41 -14 -2 -41 -7 -60 -10 -70 -10
-402 -88 -450 -104 -14 -5 -72 -23 -130 -41 -381 -117 -799 -316 -1155 -552
-105 -69 -291 -201 -305 -217 -3 -3 -25 -21 -50 -40 -25 -19 -47 -37 -50 -40
-3 -3 -18 -16 -34 -28 -67 -52 -302 -266 -396 -363 -412 -422 -711 -840 -948
-1321 -40 -81 -72 -149 -72 -152 0 -3 -13 -34 -29 -68 -33 -73 -131 -332 -137
-361 -2 -11 -15 -55 -28 -96 -22 -66 -77 -271 -90 -335 -3 -11 -8 -32 -11 -46
-3 -14 -8 -38 -10 -55 -3 -16 -8 -37 -11 -46 -2 -10 -6 -30 -9 -45 -7 -54 -16
-109 -20 -124 -11 -41 -43 -328 -52 -460 -14 -214 -7 -801 12 -900 1 -8 6 -49
10 -90 12 -117 13 -123 18 -155 3 -16 15 -85 26 -152 28 -160 71 -352 111
-488 18 -61 34 -119 37 -130 3 -11 11 -33 18 -50 8 -16 16 -43 20 -60 4 -16
11 -40 16 -52 5 -13 13 -33 18 -45 129 -332 278 -634 425 -863 18 -27 48 -74
66 -103 18 -30 38 -59 44 -65 6 -7 25 -32 41 -57 47 -70 241 -317 314 -400
195 -222 481 -499 666 -645 28 -22 52 -43 55 -46 3 -3 66 -51 140 -105 236
-174 484 -325 735 -448 119 -58 135 -65 229 -106 253 -112 684 -241 961 -290
33 -5 69 -12 80 -14 11 -2 56 -9 100 -16 44 -6 89 -13 101 -15 11 -2 52 -6 90
-10 38 -4 80 -8 92 -10 166 -26 845 -26 1052 0 14 1 46 5 70 8 25 3 72 9 105
13 33 3 69 8 80 10 26 6 72 13 115 20 324 48 782 184 1110 331 303 136 594
305 865 501 110 81 251 190 291 227 6 5 38 33 70 60 135 115 398 378 525 525
509 587 841 1206 1033 1920 46 173 105 475 121 620 3 30 8 71 10 90 29 218 40
744 21 985 -4 55 -9 127 -12 160 -2 33 -6 71 -9 85 -2 14 -7 48 -10 75 -5 46
-12 90 -21 140 -2 11 -6 36 -8 55 -5 35 -10 63 -23 130 -9 51 -9 51 -33 152
-29 124 -78 308 -89 333 -5 11 -19 52 -30 90 -57 183 -174 463 -276 660 -72
138 -171 310 -202 351 -12 17 -23 34 -23 37 0 6 -90 140 -153 227 -120 164
-304 386 -431 519 -86 89 -277 277 -312 308 -12 10 -49 43 -84 73 -34 30 -74
64 -88 75 -14 11 -43 35 -66 54 -72 59 -298 225 -376 275 -41 27 -86 56 -100
65 -156 106 -520 290 -775 391 -177 70 -586 193 -718 215 -17 3 -64 12 -104
20 -39 8 -89 17 -110 20 -21 3 -60 10 -88 15 -51 9 -76 12 -230 29 -192 21
-240 24 -542 26 -172 1 -313 1 -315 0z m657 -969 c162 -18 209 -24 345 -47
167 -29 163 -28 310 -66 170 -44 294 -83 440 -140 121 -47 420 -191 505 -242
28 -17 57 -34 65 -38 43 -20 320 -214 420 -294 523 -418 939 -941 1189 -1496
35 -76 67 -147 72 -158 21 -47 90 -249 118 -350 47 -166 49 -173 70 -275 38
-187 42 -211 56 -330 4 -30 8 -68 10 -85 26 -207 26 -841 0 -935 -2 -8 -6 -42
-10 -75 -10 -104 -55 -343 -91 -484 -33 -130 -120 -405 -134 -426 -4 -5 -15
-32 -25 -60 -27 -74 -147 -324 -206 -429 -132 -232 -329 -505 -512 -707 -457
-506 -978 -872 -1557 -1094 -178 -68 -458 -149 -585 -169 -21 -4 -40 -8 -44
-10 -3 -2 -30 -7 -59 -10 -30 -3 -57 -8 -62 -11 -10 -6 -252 -34 -370 -43
-190 -13 -699 -5 -784 13 -12 2 -48 7 -80 10 -33 2 -85 9 -115 15 -31 5 -72
12 -91 15 -239 39 -575 138 -819 242 -829 354 -1572 1045 -2000 1862 -154 294
-285 664 -346 976 -17 87 -46 267 -51 315 -3 30 -7 61 -10 68 -24 77 -24 782
0 932 3 14 7 52 11 85 3 33 13 101 21 150 131 790 479 1475 1053 2070 338 350
700 622 1099 824 66 34 122 61 125 61 3 0 39 15 79 34 133 61 479 177 599 201
9 2 59 13 112 24 95 21 238 45 332 56 28 4 61 8 75 11 14 2 72 7 130 10 58 4
106 8 108 9 5 5 555 -3 607 -9z"/>
</g>
</svg>
